<mxfile host="app.diagrams.net" modified="2024-05-07T14:42:39.358Z" agent="Mozilla/5.0 (X11; CrOS x86_64 14541.0.0) AppleWebKit/537.36 (KHTML, like Gecko) Chrome/123.0.0.0 Safari/537.36" version="24.3.1" etag="aGQsYtWqguJ0SWd1asXs" type="github">
  <diagram name="PÃ¡gina-1" id="ICeH9aqAk8LXvuGykzN9">
    <mxGraphModel>
      <root>
        <mxCell id="0" />
        <mxCell id="1" parent="0" />
      </root>
    </mxGraphModel>
  </diagram>
</mxfile>
